<svg version="1.0" xmlns="http://www.w3.org/2000/svg"
  viewBox="0 0 118.000000 80.000000"
 preserveAspectRatio="xMidYMid meet">

<g transform="translate(0.000000,80.000000) scale(0.100000,-0.100000)"
fill="#000000" stroke="none">
<path d="M496 792 c-3 -5 -26 -65 -51 -133 -26 -68 -49 -127 -53 -131 -4 -4
-50 -16 -102 -26 -132 -28 -208 -58 -252 -102 -43 -43 -48 -74 -17 -113 23
-30 121 -80 192 -97 26 -7 47 -14 47 -16 0 -1 -13 -39 -30 -84 -16 -45 -30
-83 -30 -84 0 -1 33 4 73 12 39 7 82 16 93 18 15 3 27 19 40 56 l19 53 161 3
160 2 17 -54 c17 -52 20 -56 55 -62 20 -3 64 -12 97 -19 33 -7 61 -13 61 -12
1 1 -13 40 -31 87 l-32 85 66 21 c82 25 128 49 164 82 36 34 37 83 2 118 -41
41 -148 85 -260 107 l-103 20 -50 136 -50 136 -90 3 c-50 1 -93 -1 -96 -6z
m153 -364 l50 -148 -113 0 -114 0 35 98 c20 53 45 125 56 160 12 36 24 57 28
50 4 -7 30 -79 58 -160z m-324 -84 c-8 -20 -15 -38 -15 -39 0 -2 -27 4 -61 13
-33 8 -56 19 -52 23 7 7 107 35 136 38 4 1 0 -15 -8 -35z m598 15 c41 -10 74
-29 50 -29 -4 0 -30 -7 -56 -15 l-48 -14 -15 34 c-18 44 -18 47 4 41 9 -3 38
-10 65 -17z"/>
</g>
</svg>
